@startuml
!include common.puml

$title(Lift States)
state "draft.init" as draftInit
state "init.seek" as initSeek
state "seek.exec" as seekExec
state resolvable {
  state exec
  state part
}

draftInit: Status: draft, Request: init
draftInit: Need to validate lift
initSeek: Status: init, Request: seek
initSeek: Need to launch discovery
seekExec: Status: seek, Request: exec
seekExec: Need to launch transaction
exec:  Status: exec, Request: null
good:  Status: good, Request: null
part:  Status: part, Request: null
void:  Status: void, Request: null
resolvable: Awaiting lift completion or failure

'State transition rules:
[*] -[$user]-> draftInit: $trans($user,User initiates linear lift\nRequest:init,'')
[*] --> draftInit: $trans(Agent,Automaton initiates circular lift\nRequest:init,'')
draftInit -[$db]-> void: $trans($db, local_init, 'Lift/signature invalid', Disable payment record)
draftInit -[$db]-> initSeek: $trans($db, local_init, 'Payor sign good', 'Agent signs, advance to seek')
draftInit -[$db]-> good: $trans($db, local_init, 'Payor sig good', 'Internal lift possible\nLift executed locally')
initSeek -[$db]-> seekExec: $trans($db, local_seek, ChipNet launched, 'Pathways/plans discovered')
initSeek -[$db]-> void: $trans($db, local_seek, ChipNet launched, 'Discovery timed out')

seekExec -[$db]-> exec: $trans($db, local_exec, DB/User selected plan, ChipNet lift initiated)
seekExec -[$db]-> void: $trans($db, local_exec, ChipNet lift initialization failed)

[*] -[$peer]-> part: $trans($peer, chipNet requests promise, 'Create lift, draft chits')

resolvable -[$peer]-> good: $trans($peer, chipNet confirms good, Verified Valid, Commit lift chits; Consense)
resolvable -[$peer]-> void: $trans($peer, chipNet confirms failed, Verified Void, Mark lift as void)

@enduml
